<svg width="17" height="18" viewBox="0 0 17 18" fill="none" xmlns="http://www.w3.org/2000/svg">
<path d="M5.16667 6.91667H8.5M5.16667 9.83333H11M8.5 16.5C12.6421 16.5 16 13.1421 16 9C16 4.85786 12.6421 1.5 8.5 1.5C4.35786 1.5 1 4.85786 1 9C1 9.99762 1.19478 10.9497 1.54839 11.8204C1.61606 11.9871 1.6499 12.0704 1.665 12.1377C1.67976 12.2036 1.68516 12.2524 1.68517 12.3199C1.68518 12.3889 1.67265 12.4641 1.64759 12.6145L1.15344 15.5794C1.10169 15.8898 1.07582 16.0451 1.12397 16.1573C1.16611 16.2556 1.2444 16.3339 1.34265 16.376C1.45491 16.4242 1.61015 16.3983 1.92063 16.3466L4.88554 15.8524C5.03591 15.8273 5.11109 15.8148 5.18011 15.8148C5.24763 15.8148 5.29638 15.8202 5.36227 15.835C5.42962 15.8501 5.51294 15.8839 5.67958 15.9516C6.55025 16.3052 7.50238 16.5 8.5 16.5Z" stroke="#535862" stroke-width="1.66667" stroke-linecap="round" stroke-linejoin="round"/>
</svg>
