<svg width="16" height="4" viewBox="0 0 16 4" fill="none" xmlns="http://www.w3.org/2000/svg">
<path d="M7.99967 2.83332C8.45991 2.83332 8.83301 2.46023 8.83301 1.99999C8.83301 1.53975 8.45991 1.16666 7.99967 1.16666C7.53944 1.16666 7.16634 1.53975 7.16634 1.99999C7.16634 2.46023 7.53944 2.83332 7.99967 2.83332Z" stroke="#717680" stroke-width="1.7" stroke-linecap="round" stroke-linejoin="round"/>
<path d="M13.833 2.83332C14.2932 2.83332 14.6663 2.46023 14.6663 1.99999C14.6663 1.53975 14.2932 1.16666 13.833 1.16666C13.3728 1.16666 12.9997 1.53975 12.9997 1.99999C12.9997 2.46023 13.3728 2.83332 13.833 2.83332Z" stroke="#717680" stroke-width="1.7" stroke-linecap="round" stroke-linejoin="round"/>
<path d="M2.16634 2.83332C2.62658 2.83332 2.99967 2.46023 2.99967 1.99999C2.99967 1.53975 2.62658 1.16666 2.16634 1.16666C1.7061 1.16666 1.33301 1.53975 1.33301 1.99999C1.33301 2.46023 1.7061 2.83332 2.16634 2.83332Z" stroke="#717680" stroke-width="1.7" stroke-linecap="round" stroke-linejoin="round"/>
</svg>
