<svg width="20" height="20" viewBox="0 0 20 20" fill="none" xmlns="http://www.w3.org/2000/svg">
<path d="M5.72211 8.45781L9.59035 2.48005C9.92985 1.99683 10.4834 1.70923 11.074 1.70923C12.1752 1.70923 13.0222 2.68293 12.8697 3.77359L12.5531 6.0366H14.9905C16.2011 6.0366 18.6223 7.2472 18.6223 9.66841C18.6223 12.0896 16.5195 17.6276 13.9442 17.6276C10.9276 17.6276 7.88682 16.7257 6.25858 16.2428C6.05726 16.1831 5.87752 16.1298 5.72211 16.0854H4.69385V8.45781H5.72211Z" stroke="#535862" stroke-width="1.67" stroke-linecap="round" stroke-linejoin="round"/>
<path d="M4.69377 16.6327V8.22249C4.69377 7.30671 3.95139 6.56433 3.0356 6.56433C2.11982 6.56433 1.37744 7.30671 1.37744 8.22249V16.6327C1.37744 17.5485 2.11982 18.2909 3.0356 18.2909C3.95139 18.2909 4.69377 17.5485 4.69377 16.6327Z" stroke="#535862" stroke-width="1.67" stroke-linecap="round" stroke-linejoin="round"/>
</svg>
