<svg width="40" height="40" viewBox="0 0 40 40" fill="none" xmlns="http://www.w3.org/2000/svg">
<path d="M19.875 37.125C11.1562 37.125 1.75 31.6562 1.75 19.6562C1.75 7.65625 11.1562 2.1875 19.875 2.1875C24.7188 2.1875 29.1875 3.78125 32.5 6.6875C36.0938 9.875 38 14.375 38 19.6562C38 24.9375 36.0938 29.4063 32.5 32.5938C29.1875 35.5 24.6875 37.125 19.875 37.125Z" fill="url(#paint0_radial_2_11849)"/>
<path d="M34.8407 9.27185C36.5063 11.9594 37.3751 15.1594 37.3751 18.7187C37.3751 24 35.4688 28.4687 31.8751 31.6562C28.5626 34.5625 24.0626 36.1875 19.2501 36.1875C13.6063 36.1875 7.6876 33.8906 4.19385 29.0187C7.55635 34.5375 13.8813 37.125 19.8751 37.125C24.6876 37.125 29.1876 35.5 32.5001 32.5937C36.0938 29.4062 38.0001 24.9375 38.0001 19.6562C38.0001 15.675 36.9157 12.1375 34.8407 9.27185Z" fill="#EB8F00"/>
<path d="M26.231 32.2312C26.1247 32.1906 26.0278 32.125 25.9528 32.0375C22.9122 28.8781 17.8841 28.7813 14.7247 31.8219C14.6528 31.8938 14.5778 31.9656 14.5091 32.0375C14.4341 32.125 14.3372 32.1906 14.231 32.2312C13.9966 32.3187 13.731 32.2688 13.5435 32.1031C13.3591 31.9406 13.2966 31.6813 13.3903 31.4531C14.3216 29.0625 17.0903 27.1875 20.231 27.1875C23.3716 27.1875 26.1403 29.0625 27.0716 31.45C27.1653 31.6781 27.1028 31.9375 26.9185 32.1C26.731 32.2656 26.4653 32.3156 26.231 32.2312Z" fill="#422B0D"/>
<path d="M18.1686 21.5063C17.4686 20.625 14.5842 18.9313 13.5436 18.4375C13.1561 18.2594 12.753 18.1157 12.3405 18.0094C12.2655 17.9875 12.1842 17.9781 12.1061 17.9781C11.6905 17.9875 11.3342 18.2844 11.2499 18.6938C11.153 19.1188 11.3717 19.5563 11.7717 19.7313C12.2624 19.9719 13.1186 20.4282 14.0061 20.9313C13.2655 21.3719 12.8124 22.1719 12.8124 23.0344V23.4906C12.8124 24.7844 13.8624 25.8344 15.1561 25.8344C16.4499 25.8344 17.4999 24.7844 17.4999 23.4906V23.0344V22.9813C17.8342 22.9594 18.1342 22.7594 18.2811 22.4594C18.4342 22.1469 18.3905 21.775 18.1686 21.5063Z" fill="#422B0D"/>
<path d="M29.2249 18.6938C29.1374 18.2813 28.7749 17.9875 28.353 17.9844C28.2749 17.9844 28.1937 17.9938 28.1187 18.0156C27.7062 18.1188 27.303 18.2625 26.9155 18.4375C25.8749 18.925 22.9905 20.625 22.2905 21.5C22.0687 21.7719 22.0312 22.1469 22.1874 22.4594C22.3374 22.7625 22.6343 22.9594 22.9718 22.9813V23.0344V23.4906C22.9718 24.7844 24.0218 25.8344 25.3155 25.8344C26.6093 25.8344 27.6593 24.7844 27.6593 23.4906V23.0344C27.6593 22.175 27.2062 21.3781 26.4687 20.9375C27.3562 20.4344 28.2124 19.9781 28.703 19.7375C29.1062 19.5625 29.328 19.1219 29.2249 18.6938Z" fill="#422B0D"/>
<path d="M15.0372 21.3907C14.5934 21.1782 14.0591 21.3657 13.8434 21.8094C13.6778 22.1563 13.7528 22.5719 14.0309 22.8407C14.4747 23.0532 15.0091 22.8657 15.2247 22.4219C15.3903 22.0751 15.3153 21.6594 15.0372 21.3907Z" fill="#896024"/>
<path d="M25.1969 21.3907C24.7531 21.1782 24.2187 21.3657 24.0031 21.8094C23.8375 22.1563 23.9125 22.5719 24.1906 22.8407C24.6344 23.0532 25.1687 22.8657 25.3844 22.4219C25.55 22.0751 25.475 21.6594 25.1969 21.3907Z" fill="#896024"/>
<defs>
<radialGradient id="paint0_radial_2_11849" cx="0" cy="0" r="1" gradientUnits="userSpaceOnUse" gradientTransform="translate(19.875 19.6562) scale(17.8)">
<stop offset="0.5" stop-color="#FDE030"/>
<stop offset="0.92" stop-color="#F7C02B"/>
<stop offset="1" stop-color="#F4A223"/>
</radialGradient>
</defs>
</svg>
