<svg width="37" height="36" viewBox="0 0 37 36" fill="none" xmlns="http://www.w3.org/2000/svg">
<path d="M18.7563 35.125C10.0376 35.125 0.631348 29.6562 0.631348 17.6562C0.631348 5.65625 10.0376 0.1875 18.7563 0.1875C23.6001 0.1875 28.0688 1.78125 31.3813 4.6875C34.9751 7.875 36.8813 12.375 36.8813 17.6562C36.8813 22.9375 34.9751 27.4063 31.3813 30.5938C28.0626 33.5 23.5688 35.125 18.7563 35.125Z" fill="url(#paint0_radial_2_11806)"/>
<path d="M12.75 10.7937C11.4406 10.7937 10.25 11.9 10.25 13.7375C10.25 15.575 11.4406 16.6781 12.75 16.6781C14.0625 16.6781 15.25 15.5718 15.25 13.7375C15.25 11.9031 14.075 10.7937 12.75 10.7937Z" fill="#422B0D"/>
<path d="M12.6407 12.0219C12.197 11.8094 11.6626 11.9969 11.447 12.4407C11.2813 12.7875 11.3563 13.2032 11.6345 13.4719C12.0782 13.6844 12.6126 13.4969 12.8282 13.0532C12.9938 12.7063 12.9188 12.2907 12.6407 12.0219Z" fill="#896024"/>
<path d="M24.75 10.7937C23.4406 10.7937 22.25 11.9 22.25 13.7375C22.25 15.575 23.4406 16.6781 24.75 16.6781C26.0594 16.6781 27.25 15.5718 27.25 13.7375C27.25 11.9031 26.0594 10.7937 24.75 10.7937Z" fill="#422B0D"/>
<path d="M24.6251 12.0219C24.1813 11.8094 23.647 11.9969 23.4313 12.4407C23.2657 12.7875 23.3407 13.2032 23.6188 13.4719C24.0626 13.6844 24.597 13.4969 24.8126 13.0532C24.9782 12.7063 24.9032 12.2907 24.6251 12.0219Z" fill="#896024"/>
<path d="M33.8407 7.27185C35.5063 9.95935 36.3751 13.1594 36.3751 16.7187C36.3751 22 34.4688 26.4687 30.8751 29.6562C27.5626 32.5625 23.0626 34.1875 18.2501 34.1875C12.6063 34.1875 6.6876 31.8906 3.19385 27.0187C6.55635 32.5375 12.8813 35.125 18.8751 35.125C23.6876 35.125 28.1876 33.5 31.5001 30.5937C35.0938 27.4062 37.0001 22.9375 37.0001 17.6562C37.0001 13.675 35.9157 10.1375 33.8407 7.27185Z" fill="#EB8F00"/>
<path d="M30.897 20.3812C30.4595 19.5906 29.5095 19.2437 28.6658 19.5625C25.4595 20.4969 22.1345 20.9625 18.7939 20.9469C15.4533 20.9625 12.1283 20.4969 8.92204 19.5625C8.08142 19.2437 7.13142 19.5875 6.69392 20.375C6.26892 21.1594 6.57517 22.0687 6.93454 22.8531C8.94079 27.2594 13.3627 29.8969 18.7689 29.9125H18.8189C24.2252 29.9125 28.647 27.2594 30.6564 22.8531C31.0127 22.0625 31.322 21.1656 30.897 20.3812Z" fill="#422B0D"/>
<path d="M23.7971 28.6687C23.6814 28.5625 23.5627 28.4656 23.4439 28.3562C22.1689 27.2343 20.5189 26.6312 18.8189 26.6656C17.0689 26.6375 15.3658 27.2187 14.0002 28.3125C13.8814 28.4093 13.7564 28.5031 13.6408 28.625C13.5252 28.7468 13.4627 28.8343 13.3877 28.9375C15.1064 29.6093 16.9377 29.9531 18.7846 29.9437H18.8346C20.6033 29.9437 22.3564 29.6281 24.0127 29.0062C23.9502 28.8875 23.8783 28.775 23.7971 28.6687Z" fill="#ED7770"/>
<path d="M28.6659 19.5625C25.4597 20.4968 22.1347 20.9625 18.794 20.9468C15.4534 20.9625 12.1284 20.4968 8.92217 19.5625C8.08154 19.2437 7.13154 19.5875 6.69404 20.375C6.63154 20.4937 6.58154 20.6187 6.55029 20.7468C6.65342 20.8 6.77217 20.8531 6.91279 20.9093C10.6753 22.7937 14.8347 23.75 19.0409 23.7C23.0753 23.7468 27.0628 22.8687 30.7065 21.1375C30.8534 21.075 30.9753 21.0156 31.0847 20.9593C31.0597 20.7562 30.994 20.5562 30.8972 20.375C30.4597 19.5875 29.5097 19.2406 28.6659 19.5625Z" fill="white"/>
<path d="M30.9095 20.3844C30.4658 19.5937 29.5127 19.2437 28.6627 19.5625C25.4564 20.4969 22.1314 20.9625 18.7939 20.9469C15.4533 20.9625 12.1283 20.4969 8.92204 19.5625C8.08142 19.2437 7.13142 19.5875 6.69392 20.375C6.26892 21.1594 6.57517 22.0687 6.93454 22.8531C7.09392 23.2062 7.27204 23.5531 7.46892 23.8875C7.46892 23.8875 6.81267 21.4562 7.38142 20.75C7.57517 20.45 7.90017 20.2625 8.25642 20.2437C8.40329 20.2437 8.54704 20.2687 8.68767 20.3125C11.9502 21.2719 15.3345 21.7562 18.7377 21.75H18.847C22.2502 21.7562 25.6345 21.2719 28.897 20.3125C29.0377 20.2687 29.1814 20.2437 29.3283 20.2437C29.6845 20.2625 30.0127 20.45 30.2064 20.75C30.7845 21.4562 30.1189 23.8969 30.1189 23.8969C30.3127 23.5625 30.5064 23.2187 30.6689 22.8625C31.0252 22.0781 31.3345 21.1719 30.9095 20.3844Z" fill="#EB8F00"/>
<defs>
<radialGradient id="paint0_radial_2_11806" cx="0" cy="0" r="1" gradientUnits="userSpaceOnUse" gradientTransform="translate(18.7563 17.6562) scale(17.8)">
<stop offset="0.5" stop-color="#FDE030"/>
<stop offset="0.92" stop-color="#F7C02B"/>
<stop offset="1" stop-color="#F4A223"/>
</radialGradient>
</defs>
</svg>
