<svg width="38" height="36" viewBox="0 0 38 36" fill="none" xmlns="http://www.w3.org/2000/svg">
<path d="M19 35.125C10.2812 35.125 0.875 29.6562 0.875 17.6562C0.875 5.65625 10.2812 0.1875 19 0.1875C23.8438 0.1875 28.3125 1.78125 31.625 4.6875C35.2188 7.875 37.125 12.375 37.125 17.6562C37.125 22.9375 35.2188 27.4063 31.625 30.5938C28.3062 33.5 23.8125 35.125 19 35.125Z" fill="url(#paint0_linear_2_11794)"/>
<g clip-path="url(#clip0_2_11794)">
<path fill-rule="evenodd" clip-rule="evenodd" d="M18.429 8.08501L14.4557 14.225C14.4823 14.4118 14.4961 14.6026 14.4961 14.7967V25.2036C16.5562 25.8134 20.2051 26.8617 23.826 26.8617C27.0181 26.8617 29.6248 19.9969 29.6248 16.9956C29.6248 13.9943 26.6234 12.4937 25.1229 12.4937H22.1015L22.4939 9.68846C22.6831 8.3365 21.6331 7.12952 20.268 7.12952C19.536 7.12952 18.8498 7.48602 18.429 8.08501ZM12.5989 14.7968V25.5086C12.5989 26.675 11.6533 27.6206 10.4869 27.6206C9.32055 27.6206 8.375 26.675 8.375 25.5086V14.7968C8.375 13.6304 9.32055 12.6849 10.4869 12.6849C11.6533 12.6849 12.5989 13.6304 12.5989 14.7968Z" fill="white"/>
</g>
<defs>
<linearGradient id="paint0_linear_2_11794" x1="37.125" y1="35.125" x2="37.125" y2="0.1875" gradientUnits="userSpaceOnUse">
<stop stop-color="#00C6FB"/>
<stop offset="1" stop-color="#005BEA"/>
</linearGradient>
<clipPath id="clip0_2_11794">
<rect width="21.25" height="21.25" fill="white" transform="translate(8.375 6.75)"/>
</clipPath>
</defs>
</svg>
