<svg width="38" height="36" viewBox="0 0 38 36" fill="none" xmlns="http://www.w3.org/2000/svg">
<path d="M19 35.125C10.2812 35.125 0.875 29.6562 0.875 17.6562C0.875 5.65625 10.2812 0.1875 19 0.1875C23.8438 0.1875 28.3125 1.78125 31.625 4.6875C35.2188 7.875 37.125 12.375 37.125 17.6562C37.125 22.9375 35.2188 27.4063 31.625 30.5938C28.3062 33.5 23.8125 35.125 19 35.125Z" fill="url(#paint0_linear_2_11800)"/>
<g clip-path="url(#clip0_2_11800)">
<path fill-rule="evenodd" clip-rule="evenodd" d="M29.6248 15.4394C29.588 12.9884 28.1723 10.5858 26.011 9.5989C24.9143 9.09809 23.6439 8.97354 22.3178 9.38611C21.2026 9.73306 20.0821 10.4485 19 11.5793C17.9179 10.4485 16.7974 9.73308 15.6822 9.38614C14.3561 8.9736 13.0856 9.0982 11.989 9.59904C9.82775 10.5861 8.41205 12.9887 8.37509 15.4397L8.375 15.4511C8.375 19.0212 10.541 22.1818 12.8319 24.3984C13.9887 25.5176 15.2095 26.4283 16.2735 27.0637C16.8053 27.3812 17.3081 27.6361 17.7527 27.8138C18.1785 27.9843 18.6177 28.1115 19 28.1115C19.3823 28.1115 19.8214 27.9841 20.2473 27.8138C20.6919 27.6361 21.1947 27.3812 21.7264 27.0637C22.7905 26.4282 24.0112 25.5176 25.1681 24.3982C27.459 22.1816 29.625 19.0209 29.625 15.4508L29.6248 15.4394Z" fill="white"/>
</g>
<defs>
<linearGradient id="paint0_linear_2_11800" x1="19" y1="0.187501" x2="19" y2="35.125" gradientUnits="userSpaceOnUse">
<stop stop-color="#C569CF"/>
<stop offset="1" stop-color="#EE609C"/>
</linearGradient>
<clipPath id="clip0_2_11800">
<rect width="21.25" height="21.25" fill="white" transform="translate(8.375 8)"/>
</clipPath>
</defs>
</svg>
