<svg width="40" height="40" viewBox="0 0 40 40" fill="none" xmlns="http://www.w3.org/2000/svg">
<path d="M19.875 37.125C11.1562 37.125 1.75 31.6562 1.75 19.6562C1.75 7.65625 11.1562 2.1875 19.875 2.1875C24.7188 2.1875 29.1875 3.78125 32.5 6.6875C36.0938 9.875 38 14.375 38 19.6562C38 24.9375 36.0938 29.4063 32.5 32.5938C29.1875 35.5 24.6875 37.125 19.875 37.125Z" fill="url(#paint0_radial_2_11832)"/>
<path d="M34.8407 9.27185C36.5063 11.9594 37.3751 15.1594 37.3751 18.7187C37.3751 24 35.4688 28.4687 31.8751 31.6562C28.5626 34.5625 24.0626 36.1875 19.2501 36.1875C13.6063 36.1875 7.6876 33.8906 4.19385 29.0187C7.55635 34.5375 13.8813 37.125 19.8751 37.125C24.6876 37.125 29.1876 35.5 32.5001 32.5937C36.0938 29.4062 38.0001 24.9375 38.0001 19.6562C38.0001 15.675 36.9157 12.1375 34.8407 9.27185Z" fill="#EB8F00"/>
<path d="M20.0002 24.8125C23.3752 24.8125 25.7502 26.5625 26.469 27.6562C26.744 28.0031 26.8033 28.4719 26.6252 28.875C26.4877 29.1281 26.2252 29.2844 25.9377 29.2812C25.8315 29.275 25.7252 29.2531 25.6252 29.2188C23.7971 28.6969 21.9033 28.4344 20.0002 28.4375C18.1065 28.425 16.219 28.7 14.4065 29.25C14.3065 29.2844 14.2002 29.3063 14.094 29.3125C13.8065 29.3219 13.5377 29.1656 13.4065 28.9062C13.2252 28.5031 13.2877 28.0312 13.5627 27.6875C14.2502 26.5625 16.6565 24.8125 20.0002 24.8125Z" fill="#422B0D"/>
<path d="M11.5625 32.6562C9.53125 32.6562 7.96875 30.6875 7.96875 29C7.96875 27.8125 8.5 26.4375 9.25 24.5312C9.34375 24.25 9.46875 23.9687 9.59375 23.6562C10.0313 22.525 10.5312 21.4187 11.0938 20.3437C11.2062 20.1281 11.4625 20.0344 11.6875 20.125C11.7813 20.1719 11.8594 20.25 11.9062 20.3437C12.375 21.3125 12.9062 22.5 13.4375 23.7187C14.75 26.6562 15.125 27.8437 15.125 29.0312C15.1563 30.6875 13.5625 32.6562 11.5625 32.6562Z" fill="url(#paint1_radial_2_11832)"/>
<path d="M13.75 30.4031C13.2906 31.1125 12.25 30.9781 12.25 29.8C12.25 29.0468 12.4031 25.1781 13.05 25.7187C14.1125 26.6 14.4125 29.4 13.75 30.4031Z" fill="#81D4FA"/>
<path d="M9.37478 14.5937C8.98416 15.1718 8.05603 14.8 8.32791 14.1C8.96853 12.5781 10.1654 11.3593 11.6779 10.6968C12.231 10.4343 12.8279 10.2687 13.4373 10.2031C13.7467 10.1406 14.0498 10.3406 14.1123 10.65C14.1748 10.9593 13.9748 11.2625 13.6623 11.325H13.6217C11.8779 11.9031 10.381 13.0562 9.37478 14.5937Z" fill="#422B0D"/>
<path d="M30.4031 14.5937C30.7938 15.1718 31.7219 14.8 31.45 14.1C30.8063 12.575 29.6031 11.3562 28.0844 10.6968C27.5313 10.4343 26.9406 10.2687 26.3313 10.2031C26.0219 10.1406 25.7188 10.3406 25.6594 10.65C25.5969 10.9593 25.7969 11.2625 26.1063 11.325H26.1469C27.8938 11.9 29.3969 13.0531 30.4031 14.5937Z" fill="#422B0D"/>
<path d="M13.9595 14.6687C12.6501 14.6687 11.4595 15.775 11.4595 17.6125C11.4595 19.45 12.6501 20.5531 13.9595 20.5531C15.2688 20.5531 16.4595 19.4468 16.4595 17.6125C16.4595 15.7781 15.2688 14.6687 13.9595 14.6687Z" fill="#422B0D"/>
<path d="M13.8375 15.8968C13.3937 15.6843 12.8594 15.8718 12.6437 16.3155C12.4781 16.6624 12.5531 17.078 12.8312 17.3468C13.275 17.5593 13.8094 17.3718 14.025 16.928C14.1906 16.5812 14.1156 16.1655 13.8375 15.8968Z" fill="#896024"/>
<path d="M25.9375 14.6687C24.6281 14.6687 23.4375 15.775 23.4375 17.6125C23.4375 19.45 24.6281 20.5531 25.9375 20.5531C27.2469 20.5531 28.4375 19.4468 28.4375 17.6125C28.4375 15.7781 27.2531 14.6687 25.9375 14.6687Z" fill="#422B0D"/>
<path d="M25.8219 15.8968C25.3781 15.6843 24.8437 15.8718 24.6281 16.3155C24.4625 16.6624 24.5375 17.078 24.8156 17.3468C25.2594 17.5593 25.7937 17.3718 26.0094 16.928C26.175 16.5812 26.1 16.1655 25.8219 15.8968Z" fill="#896024"/>
<defs>
<radialGradient id="paint0_radial_2_11832" cx="0" cy="0" r="1" gradientUnits="userSpaceOnUse" gradientTransform="translate(19.875 19.6562) scale(17.8)">
<stop offset="0.5" stop-color="#FDE030"/>
<stop offset="0.92" stop-color="#F7C02B"/>
<stop offset="1" stop-color="#F4A223"/>
</radialGradient>
<radialGradient id="paint1_radial_2_11832" cx="0" cy="0" r="1" gradientUnits="userSpaceOnUse" gradientTransform="translate(11.8188 21.6853) scale(8.25625 12.7146)">
<stop offset="0.46" stop-color="#29B6F6"/>
<stop offset="1" stop-color="#1E88E5"/>
</radialGradient>
</defs>
</svg>
