<svg width="40" height="40" viewBox="0 0 40 40" fill="none" xmlns="http://www.w3.org/2000/svg">
<path d="M19.875 37.125C11.1562 37.125 1.75 31.6562 1.75 19.6562C1.75 7.65625 11.1562 2.1875 19.875 2.1875C24.7188 2.1875 29.1875 3.78125 32.5 6.6875C36.0938 9.875 38 14.375 38 19.6562C38 24.9375 36.0938 29.4063 32.5 32.5938C29.1875 35.5 24.6875 37.125 19.875 37.125Z" fill="url(#paint0_radial_2_11819)"/>
<path d="M34.8407 9.27185C36.5063 11.9594 37.3751 15.1594 37.3751 18.7187C37.3751 24 35.4688 28.4687 31.8751 31.6562C28.5626 34.5625 24.0626 36.1875 19.2501 36.1875C13.6063 36.1875 7.6876 33.8906 4.19385 29.0187C7.55635 34.5375 13.8813 37.125 19.8751 37.125C24.6876 37.125 29.1876 35.5 32.5001 32.5937C36.0938 29.4062 38.0001 24.9375 38.0001 19.6562C38.0001 15.675 36.9157 12.1375 34.8407 9.27185Z" fill="#EB8F00"/>
<path d="M26.25 27.475C26.25 30.025 23.4375 31.5375 20 31.5375C16.5625 31.5375 13.75 30.0375 13.75 27.475C13.75 24.9125 16.5625 22.1625 20 22.1625C23.4375 22.1625 26.25 24.9219 26.25 27.475Z" fill="#422B0D"/>
<path d="M13.75 12.7937C12.4406 12.7937 11.25 13.9 11.25 15.7375C11.25 17.575 12.4406 18.6781 13.75 18.6781C15.0625 18.6781 16.25 17.5718 16.25 15.7375C16.25 13.9031 15.075 12.7937 13.75 12.7937Z" fill="#422B0D"/>
<path d="M13.6407 14.0218C13.197 13.8093 12.6626 13.9968 12.447 14.4405C12.2813 14.7874 12.3563 15.203 12.6345 15.4718C13.0782 15.6843 13.6126 15.4968 13.8282 15.053C13.9938 14.7062 13.9188 14.2905 13.6407 14.0218Z" fill="#896024"/>
<path d="M25.75 12.7937C24.4406 12.7937 23.25 13.9 23.25 15.7375C23.25 17.575 24.4406 18.6781 25.75 18.6781C27.0594 18.6781 28.25 17.5718 28.25 15.7375C28.25 13.9031 27.0594 12.7937 25.75 12.7937Z" fill="#422B0D"/>
<path d="M25.6251 14.0218C25.1813 13.8093 24.647 13.9968 24.4313 14.4405C24.2657 14.7874 24.3407 15.203 24.6188 15.4718C25.0626 15.6843 25.597 15.4968 25.8126 15.053C25.9782 14.7062 25.9032 14.2905 25.6251 14.0218Z" fill="#896024"/>
<defs>
<radialGradient id="paint0_radial_2_11819" cx="0" cy="0" r="1" gradientUnits="userSpaceOnUse" gradientTransform="translate(19.875 19.6562) scale(17.8)">
<stop offset="0.5" stop-color="#FDE030"/>
<stop offset="0.92" stop-color="#F7C02B"/>
<stop offset="1" stop-color="#F4A223"/>
</radialGradient>
</defs>
</svg>
